<svg xmlns="http://www.w3.org/2000/svg" width="972.1551513671875" height="763.3035888671875" viewBox="-515.970703125 -180.72866821289062 972.1551513671875 763.3035888671875"><title>Neo4j Graph Visualization</title><desc>Created using Neo4j (http://www.neo4j.com/)</desc><g class="layer relationships"><g class="relationship" transform="translate(-140.90448462575046 218.83281527947966) rotate(359.01592794131057)"><path class="outline" fill="#A5ABB6" stroke="none" d="M 24.018736134675446,-6.953439040707552 L 24.277555179777966,-5.987513214418485 A 776.026403357114 776.026403357114 0 0 1 194.26525394054727,-31.81602089672856 L 194.22548375515544,-32.81522974994891 A 777.026403357114 777.026403357114 0 0 0 24.018736134675446,-6.953439040707552 Z M 249.88568365727298,-33.03545476170086 L 249.8538215279048,-32.03596248823794 A 776.026403357114 776.026403357114 0 0 1 420.04058099324635,-7.553388241170945 L 419.28707848761366,-4.6495573277041755 L 426.94177020894097,-6.279187546939131 L 421.04525100075665,-11.425162792459972 L 420.29174849512395,-8.521331878993202 A 777.026403357114 777.026403357114 0 0 0 249.88568365727298,-33.03545476170086"/><text text-anchor="middle" pointer-events="none" font-size="8px" fill="#000000" x="222.05558943785178" y="-29.923893627942448" font-family="sans-serif">GRADUATED</text></g><g class="relationship" transform="translate(-140.90448462575046 218.83281527947966) rotate(319.14339593305164)"><path class="outline" fill="#A5ABB6" stroke="none" d="M 24.018736134675446,-6.953439040707552 L 24.277555179777966,-5.987513214418485 A 418.1624935389162 418.1624935389162 0 0 1 101.97572554395248,-19.12005136540182 L 101.90271505787831,-20.11738253854503 A 419.1624935389162 419.1624935389162 0 0 0 24.018736134675446,-6.953439040707552 Z M 157.56367674112494,-20.486404428456638 L 157.50389633454714,-19.488192876234677 A 418.1624935389162 418.1624935389162 0 0 1 235.36936158688079,-7.387012881501126 L 234.63139447561883,-4.479195049742116 L 242.27726437952882,-6.14972592718304 L 236.35331773523006,-11.264103323846474 L 235.6153506239681,-8.356285492087462 A 419.1624935389162 419.1624935389162 0 0 0 157.56367674112494,-20.486404428456638"/><text text-anchor="middle" pointer-events="none" font-size="8px" fill="#000000" x="129.7303784903248" y="-17.72685392223093" font-family="sans-serif">GRADUATED</text></g><g class="relationship" transform="translate(-140.90448462575046 218.83281527947966) rotate(457.6839949784897)"><path class="outline" fill="#A5ABB6" stroke="none" d="M 25 0.5 L 63.74911099668475 0.5 L 63.74911099668475 -0.5 L 25 -0.5 Z M 138.51864224668475 0.5 L 177.2677532433695 0.5 L 177.2677532433695 3.5 L 184.2677532433695 0 L 177.2677532433695 -3.5 L 177.2677532433695 -0.5 L 138.51864224668475 -0.5 Z"/><text text-anchor="middle" pointer-events="none" font-size="8px" fill="#000000" x="101.13387662168475" y="3" transform="rotate(180 101.13387662168475 0)" font-family="sans-serif">PARTICIPATED_IN</text></g><g class="relationship" transform="translate(-140.90448462575046 218.83281527947966) rotate(223.65479056170142)"><path class="outline" fill="#A5ABB6" stroke="none" d="M 25 0.5 L 119.35664122981001 0.5 L 119.35664122981001 -0.5 L 25 -0.5 Z M 194.12617247981 0.5 L 288.48281370962 0.5 L 288.48281370962 3.5 L 295.48281370962 0 L 288.48281370962 -3.5 L 288.48281370962 -0.5 L 194.12617247981 -0.5 Z"/><text text-anchor="middle" pointer-events="none" font-size="8px" fill="#000000" x="156.74140685481" y="3" transform="rotate(180 156.74140685481 0)" font-family="sans-serif">PARTICIPATED_IN</text></g><g class="relationship" transform="translate(-140.90448462575046 218.83281527947966) rotate(287.56994985545504)"><path class="outline" fill="#A5ABB6" stroke="none" d="M 25 0.5 L 142.41773602451633 0.5 L 142.41773602451633 -0.5 L 25 -0.5 Z M 163.98023602451633 0.5 L 281.39797204903266 0.5 L 281.39797204903266 3.5 L 288.39797204903266 0 L 281.39797204903266 -3.5 L 281.39797204903266 -0.5 L 163.98023602451633 -0.5 Z"/><text text-anchor="middle" pointer-events="none" font-size="8px" fill="#000000" x="153.19898602451633" y="3" font-family="sans-serif">LED</text></g><g class="relationship" transform="translate(-140.90448462575046 218.83281527947966) rotate(537.0285256097419)"><path class="outline" fill="#A5ABB6" stroke="none" d="M 25 0.5 L 158.98480981336482 0.5 L 158.98480981336482 -0.5 L 25 -0.5 Z M 180.54730981336482 0.5 L 314.53211962672964 0.5 L 314.53211962672964 3.5 L 321.53211962672964 0 L 314.53211962672964 -3.5 L 314.53211962672964 -0.5 L 180.54730981336482 -0.5 Z"/><text text-anchor="middle" pointer-events="none" font-size="8px" fill="#000000" x="169.76605981336482" y="3" transform="rotate(180 169.76605981336482 0)" font-family="sans-serif">LED</text></g><g class="relationship" transform="translate(-140.90448462575046 218.83281527947966) rotate(496.5449839174098)"><path class="outline" fill="#A5ABB6" stroke="none" d="M 25 0.5 L 204.56975225712873 0.5 L 204.56975225712873 -0.5 L 25 -0.5 Z M 226.13225225712873 0.5 L 405.70200451425745 0.5 L 405.70200451425745 3.5 L 412.70200451425745 0 L 405.70200451425745 -3.5 L 405.70200451425745 -0.5 L 226.13225225712873 -0.5 Z"/><text text-anchor="middle" pointer-events="none" font-size="8px" fill="#000000" x="215.35100225712873" y="3" transform="rotate(180 215.35100225712873 0)" font-family="sans-serif">LED</text></g><g class="relationship" transform="translate(-140.90448462575046 218.83281527947966) rotate(319.14339593305164)"><path class="outline" fill="#A5ABB6" stroke="none" d="M 24.018736134675446,6.953439040707552 L 24.277555179777966,5.987513214418485 A 418.1624935389162 418.1624935389162 0 0 0 101.97572554395262,19.12005136540182 L 101.90271505787845,20.11738253854503 A 419.1624935389162 419.1624935389162 0 0 1 24.018736134675446,6.953439040707552 Z M 157.563676741125,20.486404428456638 L 157.50389633454722,19.48819287623462 A 418.1624935389162 418.1624935389162 0 0 0 235.36936158688079,7.387012881501126 L 234.63139447561883,4.479195049742116 L 242.27726437952882,6.14972592718304 L 236.35331773523006,11.264103323846474 L 235.6153506239681,8.356285492087462 A 419.1624935389162 419.1624935389162 0 0 1 157.563676741125,20.486404428456638"/><text text-anchor="middle" pointer-events="none" font-size="8px" fill="#000000" x="129.73037849032488" y="23.72685392223093" font-family="sans-serif">GRADUATED</text></g><g class="relationship" transform="translate(-140.90448462575046 218.83281527947966) rotate(506.51924368134934)"><path class="outline" fill="#A5ABB6" stroke="none" d="M 25 0.5 L 142.06165692154903 0.5 L 142.06165692154903 -0.5 L 25 -0.5 Z M 199.62025067154903 0.5 L 316.68190759309806 0.5 L 316.68190759309806 3.5 L 323.68190759309806 0 L 316.68190759309806 -3.5 L 316.68190759309806 -0.5 L 199.62025067154903 -0.5 Z"/><text text-anchor="middle" pointer-events="none" font-size="8px" fill="#000000" x="170.84095379654903" y="3" transform="rotate(180 170.84095379654903 0)" font-family="sans-serif">WORKS_FOR</text></g><g class="relationship" transform="translate(-140.90448462575046 218.83281527947966) rotate(382.9248685339477)"><path class="outline" fill="#A5ABB6" stroke="none" d="M 25 0.5 L 101.29121873468446 0.5 L 101.29121873468446 -0.5 L 25 -0.5 Z M 164.62715623468446 0.5 L 240.91837496936893 0.5 L 240.91837496936893 3.5 L 247.91837496936893 0 L 240.91837496936893 -3.5 L 240.91837496936893 -0.5 L 164.62715623468446 -0.5 Z"/><text text-anchor="middle" pointer-events="none" font-size="8px" fill="#000000" x="132.95918748468446" y="3" font-family="sans-serif">WORKED_FOR</text></g><g class="relationship" transform="translate(-140.90448462575046 218.83281527947966) rotate(359.01592794131057)"><path class="outline" fill="#A5ABB6" stroke="none" d="M 24.018736134675446,6.953439040707552 L 24.277555179777966,5.987513214418485 A 776.026403357114 776.026403357114 0 0 0 190.42156194192268,31.65349196378429 L 190.37683871371942,32.65249137962951 A 777.026403357114 777.026403357114 0 0 1 24.018736134675446,6.953439040707552 Z M 253.73549596242503,32.90317608902183 L 253.69867928802654,31.90385405259599 A 776.026403357114 776.026403357114 0 0 0 420.04058099324635,7.553388241170945 L 419.28707848761366,4.6495573277041755 L 426.94177020894097,6.279187546939131 L 421.04525100075665,11.425162792459972 L 420.29174849512395,8.521331878993202 A 777.026403357114 777.026403357114 0 0 1 253.73549596242503,32.90317608902183"/><text text-anchor="middle" pointer-events="none" font-size="8px" fill="#000000" x="222.05558943785186" y="35.92389362794245" font-family="sans-serif">WORKED_FOR</text></g><g class="relationship" transform="translate(-140.90448462575046 218.83281527947966) rotate(478.7701981429793)"><path class="outline" fill="#A5ABB6" stroke="none" d="M 25 0.5 L 124.76467159269711 0.5 L 124.76467159269711 -0.5 L 25 -0.5 Z M 188.1006090926971 0.5 L 287.8652806853942 0.5 L 287.8652806853942 3.5 L 294.8652806853942 0 L 287.8652806853942 -3.5 L 287.8652806853942 -0.5 L 188.1006090926971 -0.5 Z"/><text text-anchor="middle" pointer-events="none" font-size="8px" fill="#000000" x="156.4326403426971" y="3" transform="rotate(180 156.4326403426971 0)" font-family="sans-serif">WORKED_FOR</text></g><g class="relationship" transform="translate(-140.90448462575046 218.83281527947966) rotate(191.91535772006603)"><path class="outline" fill="#A5ABB6" stroke="none" d="M 25 0.5 L 48.373133026321014 0.5 L 48.373133026321014 -0.5 L 25 -0.5 Z M 111.70907052632101 0.5 L 135.08220355264203 0.5 L 135.08220355264203 3.5 L 142.08220355264203 0 L 135.08220355264203 -3.5 L 135.08220355264203 -0.5 L 111.70907052632101 -0.5 Z"/><text text-anchor="middle" pointer-events="none" font-size="8px" fill="#000000" x="80.04110177632101" y="3" transform="rotate(180 80.04110177632101 0)" font-family="sans-serif">WORKED_FOR</text></g><g class="relationship" transform="translate(-140.90448462575046 218.83281527947966) rotate(237.00883635126547)"><path class="outline" fill="#A5ABB6" stroke="none" d="M 25 0.5 L 45.51733251943797 0.5 L 45.51733251943797 -0.5 L 25 -0.5 Z M 108.85327001943797 0.5 L 129.37060253887594 0.5 L 129.37060253887594 3.5 L 136.37060253887594 0 L 129.37060253887594 -3.5 L 129.37060253887594 -0.5 L 108.85327001943797 -0.5 Z"/><text text-anchor="middle" pointer-events="none" font-size="8px" fill="#000000" x="77.18530126943797" y="3" transform="rotate(180 77.18530126943797 0)" font-family="sans-serif">WORKED_FOR</text></g><g class="relationship" transform="translate(-140.90448462575046 218.83281527947966) rotate(398.8119824165906)"><path class="outline" fill="#A5ABB6" stroke="none" d="M 25 0.5 L 74.64390727869127 0.5 L 74.64390727869127 -0.5 L 25 -0.5 Z M 137.97984477869127 0.5 L 187.62375205738255 0.5 L 187.62375205738255 3.5 L 194.62375205738255 0 L 187.62375205738255 -3.5 L 187.62375205738255 -0.5 L 137.97984477869127 -0.5 Z"/><text text-anchor="middle" pointer-events="none" font-size="8px" fill="#000000" x="106.31187602869127" y="3" font-family="sans-serif">WORKED_FOR</text></g><g class="relationship" transform="translate(-75.80190908657924 475.3964602474571) rotate(207.8469691265413)"><path class="outline" fill="#A5ABB6" stroke="none" d="M 25 0.5 L 26.72324031190334 0.5 L 26.72324031190334 -0.5 L 25 -0.5 Z M 71.55136531190334 0.5 L 73.27460562380668 0.5 L 73.27460562380668 3.5 L 80.27460562380668 0 L 73.27460562380668 -3.5 L 73.27460562380668 -0.5 L 71.55136531190334 -0.5 Z"/><text text-anchor="middle" pointer-events="none" font-size="8px" fill="#000000" x="49.13730281190334" y="3" transform="rotate(180 49.13730281190334 0)" font-family="sans-serif">PARTICI…</text></g><g class="relationship" transform="translate(-294.85494254220737 499.2130112549787) rotate(329.9103381094016)"><path class="outline" fill="#A5ABB6" stroke="none" d="M 24.018736134675446,6.953439040707552 L 24.277555179777966,5.987513214418485 A 182.15997753808762 182.15997753808762 0 0 0 58.516985812808706,11.73662098321256 L 58.446130287990826,12.734107571895748 A 183.15997753808762 183.15997753808762 0 0 1 24.018736134675446,6.953439040707552 Z M 80.05357417144742,12.991061244149535 L 80.00645936140346,11.992171763438819 A 182.15997753808762 182.15997753808762 0 0 0 114.37292361473617,7.0589187863725185 L 113.66559650194587,4.143496286028574 L 121.29346396767042,5.894392606585813 L 115.3160264317899,10.946148786831111 L 114.6086993189996,8.030726286487166 A 183.15997753808762 183.15997753808762 0 0 1 80.05357417144742,12.991061244149535"/><text text-anchor="middle" pointer-events="none" font-size="8px" fill="#000000" x="69.25200507786175" y="15.681549651744092" font-family="sans-serif">LED</text></g><g class="relationship" transform="translate(-294.85494254220737 499.2130112549787) rotate(353.79488766071745)"><path class="outline" fill="#A5ABB6" stroke="none" d="M 25 0.5 L 96.75197862973457 0.5 L 96.75197862973457 -0.5 L 25 -0.5 Z M 116.59197878232246 0.5 L 188.34395741205702 0.5 L 188.34395741205702 3.5 L 195.34395741205702 0 L 188.34395741205702 -3.5 L 188.34395741205702 -0.5 L 116.59197878232246 -0.5 Z"/><text text-anchor="middle" pointer-events="none" font-size="8px" fill="#000000" x="106.67197870602851" y="3" font-family="sans-serif">후배</text></g><g class="relationship" transform="translate(-294.85494254220737 499.2130112549787) rotate(381.835333987721)"><path class="outline" fill="#A5ABB6" stroke="none" d="M 25 0.5 L 40.79945616733279 0.5 L 40.79945616733279 -0.5 L 25 -0.5 Z M 98.35804991733279 0.5 L 114.15750608466558 0.5 L 114.15750608466558 3.5 L 121.15750608466558 0 L 114.15750608466558 -3.5 L 114.15750608466558 -0.5 L 98.35804991733279 -0.5 Z"/><text text-anchor="middle" pointer-events="none" font-size="8px" fill="#000000" x="69.57875304233279" y="3" font-family="sans-serif">WORKS_FOR</text></g><g class="relationship" transform="translate(175.20183209778867 50.159924563914814) rotate(511.915822209398)"><path class="outline" fill="#A5ABB6" stroke="none" d="M 25 0.5 L 145.60148998891881 0.5 L 145.60148998891881 -0.5 L 25 -0.5 Z M 205.69133373891881 0.5 L 326.29282372783763 0.5 L 326.29282372783763 3.5 L 333.29282372783763 0 L 326.29282372783763 -3.5 L 326.29282372783763 -0.5 L 205.69133373891881 -0.5 Z"/><text text-anchor="middle" pointer-events="none" font-size="8px" fill="#000000" x="175.64641186391881" y="3" transform="rotate(180 175.64641186391881 0)" font-family="sans-serif">OVERVIEWED</text></g><g class="relationship" transform="translate(175.20183209778867 50.159924563914814) rotate(410.0134656589592)"><path class="outline" fill="#A5ABB6" stroke="none" d="M 25 0.5 L 72.7362010336335 0.5 L 72.7362010336335 -0.5 L 25 -0.5 Z M 130.2947947836335 0.5 L 178.030995817267 0.5 L 178.030995817267 3.5 L 185.030995817267 0 L 178.030995817267 -3.5 L 178.030995817267 -0.5 L 130.2947947836335 -0.5 Z"/><text text-anchor="middle" pointer-events="none" font-size="8px" fill="#000000" x="101.5154979086335" y="3" font-family="sans-serif">WORKS_FOR</text></g><g class="relationship" transform="translate(175.20183209778867 50.159924563914814) rotate(182.83358090354784)"><path class="outline" fill="#A5ABB6" stroke="none" d="M 25 0.5 L 25.057006077006214 0.5 L 25.057006077006214 -0.5 L 25 -0.5 Z M 82.6155998270062 0.5 L 82.67260590401243 0.5 L 82.67260590401243 3.5 L 89.67260590401243 0 L 82.67260590401243 -3.5 L 82.67260590401243 -0.5 L 82.6155998270062 -0.5 Z"/><text text-anchor="middle" pointer-events="none" font-size="8px" fill="#000000" x="53.836302952006214" y="3" transform="rotate(180 53.836302952006214 0)" font-family="sans-serif">WORKS_FOR</text></g><g class="relationship" transform="translate(183.95991035393013 -48.30082128039265) rotate(187.82503133581844)"><path class="outline" fill="#A5ABB6" stroke="none" d="M 25 0.5 L 82.66667392690323 0.5 L 82.66667392690323 -0.5 L 25 -0.5 Z M 142.75651767690323 0.5 L 200.42319160380646 0.5 L 200.42319160380646 3.5 L 207.42319160380646 0 L 200.42319160380646 -3.5 L 200.42319160380646 -0.5 L 142.75651767690323 -0.5 Z"/><text text-anchor="middle" pointer-events="none" font-size="8px" fill="#000000" x="112.71159580190323" y="3" transform="rotate(180 112.71159580190323 0)" font-family="sans-serif">OVERVIEWED</text></g><g class="relationship" transform="translate(183.95991035393013 -48.30082128039265) rotate(424.0537995347994)"><path class="outline" fill="#A5ABB6" stroke="none" d="M 25 0.5 L 111.95114519624332 0.5 L 111.95114519624332 -0.5 L 25 -0.5 Z M 169.50973894624332 0.5 L 256.46088414248663 0.5 L 256.46088414248663 3.5 L 263.46088414248663 0 L 256.46088414248663 -3.5 L 256.46088414248663 -0.5 L 169.50973894624332 -0.5 Z"/><text text-anchor="middle" pointer-events="none" font-size="8px" fill="#000000" x="140.73044207124332" y="3" font-family="sans-serif">WORKS_FOR</text></g><g class="relationship" transform="translate(183.95991035393013 -48.30082128039265) rotate(503.03385056442)"><path class="outline" fill="#A5ABB6" stroke="none" d="M 25 0.5 L 44.87456938974273 0.5 L 44.87456938974273 -0.5 L 25 -0.5 Z M 102.43316313974273 0.5 L 122.30773252948546 0.5 L 122.30773252948546 3.5 L 129.30773252948546 0 L 122.30773252948546 -3.5 L 122.30773252948546 -0.5 L 102.43316313974273 -0.5 Z"/><text text-anchor="middle" pointer-events="none" font-size="8px" fill="#000000" x="73.65386626474273" y="3" transform="rotate(180 73.65386626474273 0)" font-family="sans-serif">WORKS_FOR</text></g><g class="relationship" transform="translate(300.49323619571794 348.7395822062247) rotate(332.39118724524224)"><path class="outline" fill="#A5ABB6" stroke="none" d="M 25 0.5 L 42.75697711850954 0.5 L 42.75697711850954 -0.5 L 25 -0.5 Z M 93.21400836850954 0.5 L 110.97098548701908 0.5 L 110.97098548701908 3.5 L 117.97098548701908 0 L 110.97098548701908 -3.5 L 110.97098548701908 -0.5 L 93.21400836850954 -0.5 Z"/><text text-anchor="middle" pointer-events="none" font-size="8px" fill="#000000" x="67.98549274350954" y="3" font-family="sans-serif">APPROVED</text></g><g class="relationship" transform="translate(300.49323619571794 348.7395822062247) rotate(187.0787466762352)"><path class="outline" fill="#A5ABB6" stroke="none" d="M 25 0.5 L 63.468225191230516 0.5 L 63.468225191230516 -0.5 L 25 -0.5 Z M 121.02681894123052 0.5 L 159.49504413246103 0.5 L 159.49504413246103 3.5 L 166.49504413246103 0 L 159.49504413246103 -3.5 L 159.49504413246103 -0.5 L 121.02681894123052 -0.5 Z"/><text text-anchor="middle" pointer-events="none" font-size="8px" fill="#000000" x="92.24752206623052" y="3" transform="rotate(180 92.24752206623052 0)" font-family="sans-serif">WORKS_FOR</text></g><g class="relationship" transform="translate(30.227859389710346 356.4856877505495) rotate(491.72259148572493)"><path class="outline" fill="#A5ABB6" stroke="none" d="M 25 0.5 L 56.9322154515649 0.5 L 56.9322154515649 -0.5 L 25 -0.5 Z M 95.3853404515649 0.5 L 127.3175559031298 0.5 L 127.3175559031298 3.5 L 134.3175559031298 0 L 127.3175559031298 -3.5 L 127.3175559031298 -0.5 L 95.3853404515649 -0.5 Z"/><text text-anchor="middle" pointer-events="none" font-size="8px" fill="#000000" x="76.1587779515649" y="3" transform="rotate(180 76.1587779515649 0)" font-family="sans-serif">RUN_BY</text></g><g class="relationship" transform="translate(-228.7723407264491 83.48248750733575) rotate(210.81124675157167)"><path class="outline" fill="#A5ABB6" stroke="none" d="M 25 0.5 L 55.106702893421726 0.5 L 55.106702893421726 -0.5 L 25 -0.5 Z M 105.56373414342173 0.5 L 135.67043703684345 0.5 L 135.67043703684345 3.5 L 142.67043703684345 0 L 135.67043703684345 -3.5 L 135.67043703684345 -0.5 L 105.56373414342173 -0.5 Z"/><text text-anchor="middle" pointer-events="none" font-size="8px" fill="#000000" x="80.33521851842173" y="3" transform="rotate(180 80.33521851842173 0)" font-family="sans-serif">APPROVED</text></g><g class="relationship" transform="translate(-175.64801772705678 -1.0207166788618878) rotate(291.1994224462883)"><path class="outline" fill="#A5ABB6" stroke="none" d="M 25 0.5 L 53.57454736690747 0.5 L 53.57454736690747 -0.5 L 25 -0.5 Z M 98.24251611690747 0.5 L 126.81706348381493 0.5 L 126.81706348381493 3.5 L 133.81706348381493 0 L 126.81706348381493 -3.5 L 126.81706348381493 -0.5 L 98.24251611690747 -0.5 Z"/><text text-anchor="middle" pointer-events="none" font-size="8px" fill="#000000" x="75.90853174190747" y="3" font-family="sans-serif">ONGOING</text></g><g class="relationship" transform="translate(-175.64801772705678 -1.0207166788618878) rotate(254.3674261373743)"><path class="outline" fill="#A5ABB6" stroke="none" d="M 25 0.5 L 52.41443492934769 0.5 L 52.41443492934769 -0.5 L 25 -0.5 Z M 97.08240367934769 0.5 L 124.49683860869538 0.5 L 124.49683860869538 3.5 L 131.49683860869538 0 L 124.49683860869538 -3.5 L 124.49683860869538 -0.5 L 97.08240367934769 -0.5 Z"/><text text-anchor="middle" pointer-events="none" font-size="8px" fill="#000000" x="74.74841930434769" y="3" transform="rotate(180 74.74841930434769 0)" font-family="sans-serif">ONGOING</text></g><g class="relationship" transform="translate(-175.64801772705678 -1.0207166788618878) rotate(441.0197918484964)"><path class="outline" fill="#A5ABB6" stroke="none" d="M 25 0.5 L 88.56437222394672 0.5 L 88.56437222394672 -0.5 L 25 -0.5 Z M 127.01749722394672 0.5 L 190.58186944789344 0.5 L 190.58186944789344 3.5 L 197.58186944789344 0 L 190.58186944789344 -3.5 L 190.58186944789344 -0.5 L 127.01749722394672 -0.5 Z"/><text text-anchor="middle" pointer-events="none" font-size="8px" fill="#000000" x="107.79093472394672" y="3" font-family="sans-serif">RUN_BY</text></g><g class="relationship" transform="translate(-304.38668128830545 184.335944140314) rotate(523.9693992224205)"><path class="outline" fill="#A5ABB6" stroke="none" d="M 25 0.5 L 66.2570602791123 0.5 L 66.2570602791123 -0.5 L 25 -0.5 Z M 116.7140915291123 0.5 L 157.9711518082246 0.5 L 157.9711518082246 3.5 L 164.9711518082246 0 L 157.9711518082246 -3.5 L 157.9711518082246 -0.5 L 116.7140915291123 -0.5 Z"/><text text-anchor="middle" pointer-events="none" font-size="8px" fill="#000000" x="91.4855759041123" y="3" transform="rotate(180 91.4855759041123 0)" font-family="sans-serif">APPROVED</text></g><g class="relationship" transform="translate(-431.73000486076916 411.1855887525765) rotate(463.905061132388)"><path class="outline" fill="#A5ABB6" stroke="none" d="M 25 0.5 L 27.25817914564631 0.5 L 27.25817914564631 -0.5 L 25 -0.5 Z M 77.71521039564631 0.5 L 79.97338954129262 0.5 L 79.97338954129262 3.5 L 86.97338954129262 0 L 79.97338954129262 -3.5 L 79.97338954129262 -0.5 L 77.71521039564631 -0.5 Z"/><text text-anchor="middle" pointer-events="none" font-size="8px" fill="#000000" x="52.48669477064631" y="3" transform="rotate(180 52.48669477064631 0)" font-family="sans-serif">APPROVED</text></g><g class="relationship" transform="translate(60.669432367067465 44.491066059838516) rotate(229.3167544574655)"><path class="outline" fill="#A5ABB6" stroke="none" d="M 25 0.5 L 53.31805658493032 0.5 L 53.31805658493032 -0.5 L 25 -0.5 Z M 103.77508783493032 0.5 L 132.09314441986064 0.5 L 132.09314441986064 3.5 L 139.09314441986064 0 L 132.09314441986064 -3.5 L 132.09314441986064 -0.5 L 103.77508783493032 -0.5 Z"/><text text-anchor="middle" pointer-events="none" font-size="8px" fill="#000000" x="78.54657220993032" y="3" transform="rotate(180 78.54657220993032 0)" font-family="sans-serif">APPROVED</text></g><g class="relationship" transform="translate(-168.8855416934528 426.22146731449766) rotate(509.9103381094016)"><path class="outline" fill="#A5ABB6" stroke="none" d="M 24.018736134675446,6.953439040707552 L 24.277555179777966,5.987513214418485 A 182.15997753808762 182.15997753808762 0 0 0 50.132745308172886,10.945897744252619 L 50.015862985273735,11.939043515322368 A 183.15997753808762 183.15997753808762 0 0 1 24.018736134675446,6.953439040707552 Z M 88.50036441707579,12.396697554416193 L 88.40713259850645,11.401053125914615 A 182.15997753808762 182.15997753808762 0 0 0 114.37292361473617,7.0589187863725185 L 113.66559650194587,4.143496286028574 L 121.29346396767042,5.894392606585813 L 115.3160264317899,10.946148786831111 L 114.6086993189996,8.030726286487166 A 183.15997753808762 183.15997753808762 0 0 1 88.50036441707579,12.396697554416193"/><text text-anchor="middle" pointer-events="none" font-size="8px" fill="#000000" x="69.25200507786175" y="15.681549651744092" transform="rotate(180 69.25200507786175 12.681549651744092)" font-family="sans-serif">RUN_BY</text></g></g><g class="layer nodes"><g class="node" aria-label="graph-node0" transform="translate(-140.90448462575046,218.83281527947966)"><circle class="outline" cx="0" cy="0" r="25" fill="#D9C8AE" stroke="#c0a378" stroke-width="2px"/><text class="caption" text-anchor="middle" pointer-events="none" x="0" y="5" font-size="10px" fill="#2A2C34" font-family="sans-serif"> 손동욱</text></g><g class="node" aria-label="graph-node1" transform="translate(-75.80190908657924,475.3964602474571)"><circle class="outline" cx="0" cy="0" r="25" fill="#D9C8AE" stroke="#c0a378" stroke-width="2px"/><text class="caption" text-anchor="middle" pointer-events="none" x="0" y="5" font-size="10px" fill="#2A2C34" font-family="sans-serif"> 김진섭</text></g><g class="node" aria-label="graph-node2" transform="translate(-294.85494254220737,499.2130112549787)"><circle class="outline" cx="0" cy="0" r="25" fill="#D9C8AE" stroke="#c0a378" stroke-width="2px"/><text class="caption" text-anchor="middle" pointer-events="none" x="0" y="5" font-size="10px" fill="#2A2C34" font-family="sans-serif"> 한종철</text></g><g class="node" aria-label="graph-node3" transform="translate(175.20183209778867,50.159924563914814)"><circle class="outline" cx="0" cy="0" r="25" fill="#D9C8AE" stroke="#c0a378" stroke-width="2px"/><text class="caption" text-anchor="middle" pointer-events="none" x="0" y="5" font-size="10px" fill="#2A2C34" font-family="sans-serif"> 박상언</text></g><g class="node" aria-label="graph-node4" transform="translate(183.95991035393013,-48.30082128039265)"><circle class="outline" cx="0" cy="0" r="25" fill="#D9C8AE" stroke="#c0a378" stroke-width="2px"/><text class="caption" text-anchor="middle" pointer-events="none" x="0" y="5" font-size="10px" fill="#2A2C34" font-family="sans-serif"> 진익훈</text></g><g class="node" aria-label="graph-node5" transform="translate(300.49323619571794,348.7395822062247)"><circle class="outline" cx="0" cy="0" r="25" fill="#D9C8AE" stroke="#c0a378" stroke-width="2px"/><text class="caption" text-anchor="middle" pointer-events="none" x="0" y="5" font-size="10px" fill="#2A2C34" font-family="sans-serif"> 어준경</text></g><g class="node" aria-label="graph-node6" transform="translate(30.227859389710346,356.4856877505495)"><circle class="outline" cx="0" cy="0" r="25" fill="#8DCC93" stroke="#5db665" stroke-width="2px"/><text class="caption" text-anchor="middle" pointer-events="none" x="0" y="5" font-size="10px" fill="#2A2C34" font-family="sans-serif"> Zarathu</text></g><g class="node" aria-label="graph-node7" transform="translate(-228.7723407264491,83.48248750733575)"><circle class="outline" cx="0" cy="0" r="25" fill="#8DCC93" stroke="#5db665" stroke-width="2px"/><text class="caption" text-anchor="middle" pointer-events="none" x="0" y="5" font-size="10px" fill="#2A2C34" font-family="sans-serif"> BagStati…</text></g><g class="node" aria-label="graph-node8" transform="translate(-175.64801772705678,-1.0207166788618878)"><circle class="outline" cx="0" cy="0" r="25" fill="#8DCC93" stroke="#5db665" stroke-width="2px"/><text class="caption" text-anchor="middle" pointer-events="none" x="0" y="5" font-size="10px" fill="#2A2C34" font-family="sans-serif"> Bulkrum</text></g><g class="node" aria-label="graph-node9" transform="translate(-304.38668128830545,184.335944140314)"><circle class="outline" cx="0" cy="0" r="25" fill="#8DCC93" stroke="#5db665" stroke-width="2px"/><text class="caption" text-anchor="middle" pointer-events="none" x="0" y="5" font-size="10px" fill="#2A2C34" font-family="sans-serif"> Silvia</text></g><g class="node" aria-label="graph-node10" transform="translate(-159.18326851458332,553.5748862358067)"><circle class="outline" cx="0" cy="0" r="25" fill="#8DCC93" stroke="#5db665" stroke-width="2px"/><text class="caption" text-anchor="middle" pointer-events="none" x="0" y="-5" font-size="10px" fill="#2A2C34" font-family="sans-serif"> Samsung</text><text class="caption" text-anchor="middle" pointer-events="none" x="0" y="5" font-size="10px" fill="#2A2C34" font-family="sans-serif"> Medical</text><text class="caption" text-anchor="middle" pointer-events="none" x="0" y="15" font-size="10px" fill="#2A2C34" font-family="sans-serif"> Cen</text></g><g class="node" aria-label="graph-node11" transform="translate(-431.73000486076916,411.1855887525765)"><circle class="outline" cx="0" cy="0" r="25" fill="#8DCC93" stroke="#5db665" stroke-width="2px"/><text class="caption" text-anchor="middle" pointer-events="none" x="0" y="-5" font-size="10px" fill="#2A2C34" font-family="sans-serif"> National</text><text class="caption" text-anchor="middle" pointer-events="none" x="0" y="5" font-size="10px" fill="#2A2C34" font-family="sans-serif"> Cancer</text><text class="caption" text-anchor="middle" pointer-events="none" x="0" y="15" font-size="10px" fill="#2A2C34" font-family="sans-serif"> Cen</text></g><g class="node" aria-label="graph-node12" transform="translate(60.669432367067465,44.491066059838516)"><circle class="outline" cx="0" cy="0" r="25" fill="#ECB5C9" stroke="#da7298" stroke-width="2px"/><text class="caption" text-anchor="middle" pointer-events="none" x="0" y="5" font-size="10px" fill="#2A2C34" font-family="sans-serif"> Yonsei</text></g><g class="node" aria-label="graph-node13" transform="translate(310.16933702647754,211.0847263109332)"><circle class="outline" cx="0" cy="0" r="25" fill="#ECB5C9" stroke="#da7298" stroke-width="2px"/><text class="caption" text-anchor="middle" pointer-events="none" x="0" y="5" font-size="10px" fill="#2A2C34" font-family="sans-serif"> Yonsei</text></g><g class="node" aria-label="graph-node14" transform="translate(110.45782121382096,325.1410021652262)"><circle class="outline" cx="0" cy="0" r="25" fill="#ECB5C9" stroke="#da7298" stroke-width="2px"/><text class="caption" text-anchor="middle" pointer-events="none" x="0" y="5" font-size="10px" fill="#2A2C34" font-family="sans-serif"> Yonsei</text></g><g class="node" aria-label="graph-node15" transform="translate(-46.29906215163453,-79.9448661542919)"><circle class="outline" cx="0" cy="0" r="25" fill="#4C8EDA" stroke="#2870c2" stroke-width="2px"/><text class="caption" text-anchor="middle" pointer-events="none" x="0" y="0" font-size="10px" fill="#FFFFFF" font-family="sans-serif"> High</text><text class="caption" text-anchor="middle" pointer-events="none" x="0" y="10" font-size="10px" fill="#FFFFFF" font-family="sans-serif"> Perfor…</text></g><g class="node" aria-label="graph-node16" transform="translate(-168.8855416934528,426.22146731449766)"><circle class="outline" cx="0" cy="0" r="25" fill="#4C8EDA" stroke="#2870c2" stroke-width="2px"/><text class="caption" text-anchor="middle" pointer-events="none" x="0" y="5" font-size="10px" fill="#FFFFFF" font-family="sans-serif"> Ophthal…</text></g><g class="node" aria-label="graph-node17" transform="translate(-486.9706804761559,236.79661283519948)"><circle class="outline" cx="0" cy="0" r="25" fill="#4C8EDA" stroke="#2870c2" stroke-width="2px"/><text class="caption" text-anchor="middle" pointer-events="none" x="0" y="-5" font-size="10px" fill="#FFFFFF" font-family="sans-serif"> ML</text><text class="caption" text-anchor="middle" pointer-events="none" x="0" y="5" font-size="10px" fill="#FFFFFF" font-family="sans-serif"> Training</text><text class="caption" text-anchor="middle" pointer-events="none" x="0" y="15" font-size="10px" fill="#FFFFFF" font-family="sans-serif"> Envi…</text></g><g class="node" aria-label="graph-node18" transform="translate(-372.7776666529564,-2.400232296630037)"><circle class="outline" cx="0" cy="0" r="25" fill="#4C8EDA" stroke="#2870c2" stroke-width="2px"/><text class="caption" text-anchor="middle" pointer-events="none" x="0" y="-5" font-size="10px" fill="#FFFFFF" font-family="sans-serif"> Court</text><text class="caption" text-anchor="middle" pointer-events="none" x="0" y="5" font-size="10px" fill="#FFFFFF" font-family="sans-serif"> Auction</text><text class="caption" text-anchor="middle" pointer-events="none" x="0" y="15" font-size="10px" fill="#FFFFFF" font-family="sans-serif"> Servi</text></g><g class="node" aria-label="graph-node19" transform="translate(427.1844456067475,282.482204133288)"><circle class="outline" cx="0" cy="0" r="25" fill="#4C8EDA" stroke="#2870c2" stroke-width="2px"/><text class="caption" text-anchor="middle" pointer-events="none" x="0" y="0" font-size="10px" fill="#FFFFFF" font-family="sans-serif"> Research</text><text class="caption" text-anchor="middle" pointer-events="none" x="0" y="10" font-size="10px" fill="#FFFFFF" font-family="sans-serif"> Comp…</text></g><g class="node" aria-label="graph-node20" transform="translate(-458.6387542846891,519.8776269605646)"><circle class="outline" cx="0" cy="0" r="25" fill="#4C8EDA" stroke="#2870c2" stroke-width="2px"/><text class="caption" text-anchor="middle" pointer-events="none" x="0" y="-5" font-size="10px" fill="#FFFFFF" font-family="sans-serif"> PostGIS</text><text class="caption" text-anchor="middle" pointer-events="none" x="0" y="5" font-size="10px" fill="#FFFFFF" font-family="sans-serif"> Database</text><text class="caption" text-anchor="middle" pointer-events="none" x="0" y="15" font-size="10px" fill="#FFFFFF" font-family="sans-serif"> De</text></g><g class="node" aria-label="graph-node21" transform="translate(-217.81880695838387,-151.72866282014215)"><circle class="outline" cx="0" cy="0" r="25" fill="#4C8EDA" stroke="#2870c2" stroke-width="2px"/><text class="caption" text-anchor="middle" pointer-events="none" x="0" y="5" font-size="10px" fill="#FFFFFF" font-family="sans-serif"> Legislati…</text></g><g class="node" aria-label="graph-node22" transform="translate(-118.21735799240571,-149.09022392483348)"><circle class="outline" cx="0" cy="0" r="25" fill="#4C8EDA" stroke="#2870c2" stroke-width="2px"/><text class="caption" text-anchor="middle" pointer-events="none" x="0" y="-5" font-size="10px" fill="#FFFFFF" font-family="sans-serif"> Social</text><text class="caption" text-anchor="middle" pointer-events="none" x="0" y="5" font-size="10px" fill="#FFFFFF" font-family="sans-serif"> Platform</text><text class="caption" text-anchor="middle" pointer-events="none" x="0" y="15" font-size="10px" fill="#FFFFFF" font-family="sans-serif"> for</text></g></g></svg>